<svg width="112" height="135" viewBox="0 0 112 135" fill="none" xmlns="http://www.w3.org/2000/svg">
<g id="Frame 6">
<path id="Vector" d="M46.8082 134.996C45.2469 134.229 44.7311 132.943 44.7522 131.241C44.8118 126.936 44.7732 122.632 44.7732 118.119C44.254 118.119 43.7943 118.119 43.3312 118.119C39.3033 118.119 35.2789 118.13 31.251 118.119C22.8794 118.094 16.8796 112.092 16.8059 103.672C16.7849 101.048 16.8024 98.4197 16.8024 95.6403C16.1814 95.6403 15.7147 95.6403 15.2446 95.6403C11.2167 95.6403 7.18875 95.6614 3.16435 95.6297C1.0732 95.6121 -0.168855 94.3087 0.0311371 92.4487C0.192534 90.9374 1.36793 89.9898 3.21698 89.9792C7.19928 89.9581 11.1851 89.9722 15.1674 89.9722C15.6446 89.9722 16.1217 89.9722 16.8024 89.9722C16.8024 88.0487 16.8024 86.2204 16.8024 84.3956C16.8024 82.5708 16.8024 80.8024 16.8024 78.8543C16.2656 78.8226 15.806 78.7698 15.3498 78.7698C11.3219 78.7627 7.29752 78.7768 3.26961 78.7592C1.46617 78.7522 0.294285 77.8856 0.0521889 76.4659C-0.270605 74.5742 0.99952 73.1299 3.11523 73.1087C6.87999 73.07 10.6448 73.0982 14.4095 73.0946C15.1463 73.0946 15.8867 73.0946 16.7147 73.0946V61.9627C16.2445 61.9381 15.7849 61.8888 15.3253 61.8888C11.5184 61.8817 7.70803 61.8888 3.90116 61.8852C3.59591 61.8852 3.28715 61.8958 2.9819 61.8782C1.15741 61.776 0.0100853 60.6699 0.0171025 59.0318C0.0241198 57.3937 1.17495 56.2523 3.01698 56.2312C6.60632 56.1854 10.1956 56.2171 13.785 56.2171C14.7393 56.2171 15.6937 56.2171 16.7252 56.2171V45.0782C16.227 45.0535 15.7603 45.0148 15.2972 45.0148C11.3149 45.0112 7.32909 45.0218 3.3468 45.0077C1.50827 45.0007 0.343405 44.1904 0.0662234 42.7884C-0.316218 40.8614 0.988994 39.3713 3.17487 39.3537C7.20278 39.322 11.2272 39.3431 15.2551 39.3431C15.7253 39.3431 16.1919 39.3431 16.8094 39.3431C16.8094 36.5144 16.8094 33.8441 16.8094 31.1739C16.8094 26.3089 18.7567 22.4128 22.6443 19.5276C25.0758 17.724 27.8441 16.8715 30.865 16.868C34.9806 16.8609 39.0928 16.868 43.2084 16.868C43.6785 16.868 44.1522 16.868 44.7767 16.868C44.7767 15.9767 44.7767 15.1982 44.7767 14.4232C44.7767 10.7313 44.7627 7.03946 44.7838 3.34762C44.7943 1.30442 45.8574 0.0432738 47.5345 0.00100075C49.2608 -0.0412723 50.4081 1.25862 50.4186 3.34762C50.4362 7.78629 50.4256 12.2214 50.4256 16.7623H61.527C61.548 16.2937 61.5866 15.8252 61.5866 15.3602C61.5936 11.2738 61.5655 7.18742 61.6041 3.0975C61.6217 1.20578 62.8216 -0.030704 64.4637 0.00100075C66.0671 0.0327055 67.1443 1.2234 67.232 3.06932C67.246 3.3758 67.2355 3.6858 67.2355 3.99228C67.2355 7.7722 67.2355 11.5521 67.2355 15.332V16.868C70.2985 16.868 73.2212 16.8362 76.1439 16.8785C78.635 16.9137 81.1543 16.801 83.6068 17.1462C89.9539 18.041 94.9291 23.7091 95.1572 30.1135C95.2484 32.6605 95.1958 35.2109 95.2063 37.7579C95.2063 38.2335 95.2063 38.7055 95.2063 39.3466C95.8098 39.3466 96.2765 39.3466 96.7431 39.3466C100.771 39.3466 104.799 39.3255 108.823 39.3572C110.872 39.3713 112.097 40.5867 111.988 42.3868C111.89 43.9755 110.704 44.9971 108.809 45.0077C104.827 45.0324 100.841 45.0148 96.8589 45.0148C96.3817 45.0148 95.9045 45.0148 95.3186 45.0148V56.2206C95.9677 56.2206 96.5712 56.2206 97.1712 56.2206C101.066 56.2206 104.964 56.1995 108.858 56.2312C110.943 56.2488 112.185 57.5699 111.978 59.4228C111.809 60.9306 110.63 61.8711 108.778 61.8817C104.795 61.9028 100.81 61.8888 96.8273 61.8888C96.3501 61.8888 95.873 61.8888 95.3046 61.8888V73.0171C95.7607 73.0418 96.2203 73.0911 96.6799 73.0911C100.487 73.0982 104.297 73.0911 108.104 73.0946C108.409 73.0946 108.718 73.0841 109.023 73.0982C110.851 73.1968 112.002 74.2959 111.999 75.934C111.995 77.5721 110.844 78.7205 109.009 78.7451C105.641 78.7944 102.269 78.7592 98.8974 78.7627C97.7255 78.7627 96.5501 78.7627 95.294 78.7627V89.9017C95.7852 89.9264 96.2484 89.9686 96.7115 89.9686C100.564 89.9757 104.416 89.9686 108.265 89.9722C108.616 89.9722 108.967 89.9581 109.315 89.9968C110.964 90.173 112.013 91.2967 111.995 92.8467C111.978 94.4707 110.813 95.6086 108.974 95.6297C105.209 95.672 101.445 95.6438 97.6799 95.6438C96.9045 95.6438 96.1291 95.6438 95.2063 95.6438C95.2063 98.381 95.1783 100.963 95.2133 103.545C95.259 106.624 94.5221 109.474 92.7503 111.996C89.9925 115.917 86.1891 118.003 81.4104 118.101C77.2105 118.189 73.0072 118.122 68.8039 118.126C68.3337 118.126 67.86 118.126 67.2355 118.126C67.2355 119.986 67.2355 121.73 67.2355 123.47C67.2355 126.063 67.1829 128.656 67.253 131.248C67.2987 132.95 66.7583 134.232 65.2005 135H63.6251C62.0673 134.236 61.5445 132.953 61.5691 131.259C61.6287 127.359 61.5901 123.456 61.5866 119.556C61.5866 119.098 61.548 118.64 61.527 118.2H50.4256C50.4256 118.742 50.4256 119.215 50.4256 119.687C50.4256 123.544 50.3835 127.401 50.4432 131.259C50.4712 132.957 49.9414 134.232 48.3871 135H46.8117L46.8082 134.996ZM89.6171 67.497C89.6171 55.5901 89.6171 43.6832 89.6171 31.7727C89.6171 25.9179 86.1611 22.4621 80.2911 22.4691C74.9966 22.4762 69.7021 22.5325 64.4075 22.529C53.4255 22.522 42.4435 22.4762 31.4615 22.4727C25.8757 22.4727 22.3846 26.0095 22.3846 31.6283C22.3846 55.5302 22.3846 79.4356 22.3846 103.337C22.3846 109.013 25.8863 112.514 31.5773 112.511C36.9139 112.511 42.254 112.447 47.5907 112.451C58.5271 112.458 69.467 112.5 80.4034 112.511C86.1576 112.514 89.6136 109.016 89.6136 103.218C89.6136 91.3108 89.6136 79.4039 89.6136 67.4935L89.6171 67.497Z" fill="white"/>
</g>
</svg>
