<svg width="53" height="135" viewBox="0 0 53 135" fill="none" xmlns="http://www.w3.org/2000/svg">
<g id="a" clip-path="url(#clip0_24_306)">
<path id="Vector" d="M29.4142 0C32.4977 0.697395 35.6538 1.18437 38.6587 2.12826C43.7858 3.74549 48.1813 6.66132 51.9964 10.4309C53.0907 11.507 53.2902 12.7515 52.607 13.8938C51.948 14.988 50.9262 15.5411 49.6989 15.2224C48.9794 15.0361 48.278 14.5311 47.7218 14.008C42.9938 9.55912 37.4253 6.76353 30.9923 5.89178C21.385 4.59319 12.9205 7.19639 5.68939 13.6593C5.36291 13.9539 5.0606 14.2725 4.71597 14.5551C3.42211 15.6072 1.85617 15.5471 0.792064 14.4228C-0.28414 13.2806 -0.272048 11.7295 0.919031 10.5331C3.9844 7.43687 7.5274 5.00802 11.5057 3.21643C15.0669 1.61122 18.7913 0.583166 22.691 0.210421C22.9933 0.180361 23.2896 0.0721443 23.5858 0C25.5327 0 27.4734 0 29.4203 0H29.4142Z" fill="white"/>
<path id="Vector_2" d="M50.3337 77.0321C50.3337 87.006 50.5151 96.98 50.2853 106.948C50.0435 117.523 45.2731 125.868 36.3793 131.627C27.9148 137.11 17.5699 135.812 9.87932 128.537C3.43419 122.435 0.0121097 114.962 0.0242019 106.022C0.0423401 86.2545 0.036294 66.487 0.0242019 46.7195C0.0242019 42.9199 1.14877 39.6253 4.2746 37.2325C6.34841 35.6453 8.73661 35.002 11.3364 35.008C20.5688 35.0201 29.8012 34.972 39.0336 35.0261C45.8173 35.0682 50.2974 39.5652 50.3216 46.3227C50.3579 55.3708 50.3337 64.4189 50.3337 73.473C50.3337 74.6573 50.3337 75.8477 50.3337 77.0321ZM44.7531 76.972C44.7531 69.8116 44.7531 62.6573 44.7531 55.497C44.7531 52.3768 44.7894 49.2625 44.7411 46.1423C44.6806 42.6193 42.6249 40.6052 39.088 40.5692C35.9077 40.5391 32.7275 40.5571 29.5472 40.5631C23.4105 40.5631 17.2676 40.5391 11.1309 40.5812C7.84784 40.5992 5.87077 42.505 5.62892 45.7575C5.59869 46.1964 5.61079 46.6353 5.61079 47.0742C5.61079 66.8357 5.59265 86.5972 5.61683 106.359C5.62892 114.03 8.76684 120.331 14.565 125.261C20.986 130.719 28.8519 130.858 35.3817 125.585C41.3915 120.733 44.6625 114.379 44.729 106.611C44.8136 96.7335 44.7471 86.8497 44.7471 76.972H44.7531Z" fill="white"/>
<path id="Vector_3" d="M25.7987 11.0741C33.2475 11.2184 39.1061 13.497 43.9732 18.1623C45.4968 19.6232 45.4122 21.6252 43.8402 22.6833C42.6431 23.489 41.3855 23.3447 40.1279 22.1603C37.4737 19.6533 34.4023 17.8978 30.8169 17.1523C24.0755 15.7515 18.1383 17.3868 13.0475 22.01C12.2313 22.7495 11.3123 23.507 10.2421 23.0681C9.39565 22.7194 8.52501 21.9799 8.09574 21.1803C7.53345 20.1282 8.06551 19.0581 8.9301 18.2284C12.5154 14.7835 16.7356 12.523 21.639 11.5972C23.2351 11.2966 24.8736 11.1823 25.7866 11.0681L25.7987 11.0741Z" fill="white"/>
<path id="Vector_4" d="M37.5401 28.4008C36.8509 29.2425 36.3732 30.1503 35.6235 30.6674C34.5715 31.3888 33.5014 30.9259 32.4433 30.2646C31.0164 29.3748 29.5291 28.3888 27.9329 27.986C25.194 27.3006 22.7272 28.2385 20.6413 30.1443C19.6316 31.0642 18.4829 31.3347 17.2434 30.6373C16.1249 30.0061 15.6291 28.984 15.9133 27.7515C16.0523 27.1503 16.4272 26.5311 16.8746 26.0922C22.0803 20.97 30.9378 20.964 36.1193 26.0922C36.6695 26.6393 36.9658 27.4449 37.5341 28.4008H37.5401Z" fill="white"/>
<path id="Vector_5" d="M25.055 68.2846C20.4902 68.2425 16.7477 64.4489 16.8021 59.9159C16.8565 55.2926 20.6474 51.6133 25.3089 51.6614C29.8616 51.7034 33.6223 55.5151 33.5679 60.0361C33.5135 64.6714 29.7347 68.3267 25.055 68.2846ZM27.9511 60.0301C27.9874 58.509 26.7661 57.2405 25.2364 57.2044C23.7128 57.1684 22.4431 58.3888 22.4129 59.9159C22.3826 61.4549 23.5798 62.6994 25.1215 62.7295C26.6633 62.7596 27.9148 61.5632 27.9511 60.0301Z" fill="white"/>
</g>
<defs>
<clipPath id="clip0_24_306">
<rect width="53" height="135" fill="white"/>
</clipPath>
</defs>
</svg>
