<svg width="133" height="133" viewBox="0 0 133 133" fill="none" xmlns="http://www.w3.org/2000/svg">
<g id="a" clip-path="url(#clip0_7_148)">
<path id="Vector" d="M57.112 133.224C51.8993 131.072 50.1051 128.348 50.0981 122.569C50.0981 119.411 50.0009 116.246 50.1189 113.091C50.3688 106.372 47.5612 101.108 42.529 96.9256C38.2776 93.3961 34.7203 89.3321 32.2077 84.3971C22.9206 66.1561 29.4868 43.8235 47.1794 33.4605C71.0981 19.4536 101.153 33.7174 105.047 61.1656C107.028 75.1343 102.666 87.0798 91.6157 96.1898C86.0247 100.799 83.1373 106.508 83.3351 113.789C83.4288 117.249 83.3525 120.712 83.349 124.176C83.3455 128.736 81.0723 131.742 76.6648 133.029C76.5468 133.064 76.4427 133.158 76.3351 133.22H57.112V133.224ZM77.7615 111.016C77.9524 109.825 78.0669 108.75 78.2994 107.698C79.7431 101.094 83.4149 95.9573 88.4853 91.5637C98.1056 83.231 101.684 72.521 99.2751 60.1591C95.763 42.1611 79.1393 30.9722 61.0753 33.9881C42.7545 37.0456 30.0352 56.286 34.3906 74.3083C36.1814 81.7109 39.8914 87.8502 45.9405 92.5701C50.3584 96.0198 53.4888 100.407 54.8874 105.893C55.3108 107.549 55.4913 109.267 55.7932 111.016H77.7649H77.7615ZM77.7927 116.673H55.8036C55.8036 119.543 55.6995 122.344 55.8418 125.13C55.9251 126.744 56.8725 127.646 58.2954 127.66C63.9142 127.712 69.5364 127.719 75.1551 127.66C76.7585 127.643 77.7094 126.727 77.7649 125.158C77.8621 122.361 77.7927 119.56 77.7927 116.673Z" fill="white"/>
<path id="Vector_2" d="M133 67.2756C132.379 68.8096 131.178 69.3163 129.599 69.2989C126.271 69.2608 122.942 69.2885 119.618 69.2885C118.493 69.2885 117.452 69.0803 116.796 68.0392C115.679 66.2623 116.734 63.8641 118.844 63.7878C122.727 63.6455 126.618 63.7219 130.508 63.76C131.782 63.7739 132.514 64.6311 133.003 65.7209V67.2791L133 67.2756Z" fill="white"/>
<path id="Vector_3" d="M8.30491 69.2885C6.57313 69.2885 4.84135 69.3128 3.11304 69.2816C1.08627 69.2469 -0.0312346 68.1988 0.00347038 66.4323C0.0347049 64.7318 1.13485 63.7323 3.11304 63.7149C6.5766 63.6872 10.0367 63.6872 13.5002 63.7149C15.4784 63.7323 16.5786 64.7283 16.6133 66.4323C16.648 68.2023 15.5305 69.2469 13.5002 69.2816C11.7685 69.3128 10.0367 69.2885 8.30838 69.2885H8.30491Z" fill="white"/>
<path id="Vector_4" d="M69.2885 8.36738C69.2885 10.0992 69.3198 11.8309 69.2816 13.5592C69.2399 15.5166 68.2161 16.6063 66.4983 16.6098C64.7838 16.6098 63.7357 15.5201 63.7184 13.5627C63.6837 10.0575 63.6837 6.5523 63.7184 3.0471C63.7357 1.08974 64.7804 0 66.4948 0C68.2196 0 69.2365 1.07933 69.2781 3.04363C69.3163 4.81705 69.2851 6.59395 69.2851 8.36738H69.2885Z" fill="white"/>
<path id="Vector_5" d="M29.239 32.4804C28.2776 32.0084 27.4482 31.8279 26.9554 31.3212C24.3698 28.6594 21.8676 25.9177 19.3411 23.1968C18.5637 22.3569 18.2514 21.2776 18.8309 20.344C19.2821 19.6187 20.1358 18.9836 20.9479 18.7025C21.5067 18.5082 22.4992 18.7789 22.9504 19.2057C25.765 21.8815 28.5032 24.6371 31.2102 27.4169C32.0015 28.229 32.1507 29.3604 31.4948 30.287C30.9117 31.1095 30.0372 31.7238 29.2355 32.4804H29.239Z" fill="white"/>
<path id="Vector_6" d="M111.191 114.468C110.299 113.961 109.265 113.6 108.54 112.916C106.177 110.692 103.91 108.363 101.634 106.052C100.367 104.767 100.245 103.431 101.207 102.227C102.22 100.96 103.914 100.71 105.094 101.842C107.842 104.479 110.522 107.19 113.183 109.914C113.982 110.73 114.048 111.771 113.579 112.816C113.156 113.763 112.548 114.429 111.327 114.061L111.191 114.468Z" fill="white"/>
<path id="Vector_7" d="M21.5102 114.332C20.2643 114.162 19.2474 113.888 18.7893 112.687C18.3451 111.521 18.6262 110.49 19.5077 109.609C22.0446 107.079 24.5607 104.524 27.122 102.022C28.3575 100.818 29.9157 100.853 31.0367 101.998C32.1125 103.098 32.1577 104.642 31.0089 105.822C28.5102 108.391 25.9802 110.928 23.3981 113.412C22.9192 113.874 22.1453 114.03 21.5102 114.329V114.332Z" fill="white"/>
<path id="Vector_8" d="M110.643 19.1328C112.292 19.1814 113.124 19.7401 113.596 20.7674C114.048 21.7496 113.996 22.7768 113.235 23.5577C110.643 26.2265 108.037 28.8849 105.351 31.4566C104.278 32.4804 102.144 32.345 101.29 31.4219C100.211 30.2558 100.35 28.7912 101.724 27.403C104.098 25.0049 106.471 22.5998 108.897 20.2573C109.484 19.6916 110.286 19.3584 110.643 19.1328Z" fill="white"/>
<path id="Vector_9" d="M67.1542 41.5627C80.4636 41.816 91.4373 52.9911 91.4303 66.1061C91.4303 68.4487 89.8374 69.757 87.7481 69.1081C86.3808 68.6847 85.94 67.647 85.9053 66.3108C85.7769 61.6465 84.2325 57.5062 81.1715 53.9767C77.3401 49.5587 72.471 47.289 66.6232 47.0669C64.239 46.9767 62.9965 44.9187 64.0759 42.9266C64.7873 41.6113 66.0228 41.4863 67.1577 41.5662L67.1542 41.5627Z" fill="white"/>
</g>
<defs>
<clipPath id="clip0_7_148">
<rect width="133" height="133" fill="white"/>
</clipPath>
</defs>
</svg>
