<svg width="59" height="103" viewBox="0 0 59 103" fill="none" xmlns="http://www.w3.org/2000/svg">
<g id="Frame 8">
<path id="Vector" d="M58.669 39.5664C57.9224 38.1609 56.506 38.1728 55.7439 38.1688C50.9714 38.1846 46.195 38.1807 41.4225 38.1807H36.2227C38.2626 26.6925 40.2986 15.2083 42.3423 3.72407C42.6502 1.98308 42.1576 0.810575 40.8682 0.242089C39.602 -0.318502 38.4512 0.0960192 37.4466 1.46986C25.192 18.2165 12.945 34.9632 0.705779 51.7178C0.501791 51.9981 0.140002 52.5666 0.0399329 53.214C-0.0870783 54.0312 0.0899675 54.7576 0.555675 55.3182C1.08296 55.9498 1.9374 56.3012 2.96504 56.3012C8.04548 56.3091 13.1298 56.3051 18.2102 56.3051H24.249C24.2375 56.4275 24.2259 56.5381 24.2067 56.6407C22.3746 66.9998 20.5388 77.3589 18.7029 87.718L16.6784 99.139C16.3204 101.168 16.663 101.95 18.3565 102.925L18.4873 103H20.0461L20.2155 102.818C20.3617 102.66 20.5157 102.514 20.6735 102.364C21.043 102.009 21.424 101.642 21.7165 101.18C29.3295 89.0563 36.9347 76.9246 44.5362 64.793C49.1201 57.4816 53.7041 50.1702 58.288 42.8588C58.8576 41.9508 59.3503 40.8455 58.669 39.5703V39.5664ZM29.4796 51.8994C28.9523 51.2519 28.1286 50.9085 27.0971 50.9085C24.1105 50.9085 21.1238 50.9045 18.1371 50.9045C16.4321 50.9045 14.7309 50.9045 13.0259 50.9045H7.89923L35.2105 13.562C35.0296 14.6043 34.8487 15.6504 34.6601 16.6927L33.2745 24.4383C32.3508 29.6021 31.4271 34.7658 30.5111 39.9335C30.3071 41.0744 30.4687 41.9745 30.9806 42.6101C31.504 43.2536 32.3662 43.5813 33.5362 43.5813C37.82 43.5852 42.1037 43.5813 46.3874 43.5813H51.5333L24.149 87.3035L24.2105 86.9521C24.5608 84.9308 24.9149 82.9135 25.2728 80.8922C26.0118 76.7312 26.7508 72.5741 27.4897 68.4131C28.3249 63.7192 29.1601 59.0252 29.9915 54.3312C30.1647 53.3601 29.9876 52.5192 29.4796 51.8954V51.8994Z" fill="white"/>
</g>
</svg>
