<svg width="104" height="123" viewBox="0 0 104 123" fill="none" xmlns="http://www.w3.org/2000/svg">
<g clip-path="url(#clip0_24_300)">
<path d="M51.2546 123C47.3878 121.474 43.4298 120.137 39.6705 118.385C28.4704 113.16 18.6634 106.106 11.1805 96.2136C4.03926 86.778 0.250576 76.1212 0.104106 64.3621C-0.0814222 49.8102 0.0390084 35.2551 0.0357535 20.7032C0.0357535 19.0417 0.530496 18.3958 2.20351 17.7852C18.364 11.9008 34.5212 6.00353 50.7045 0.180211C51.554 -0.125096 52.729 -0.0190422 53.6079 0.295906C66.1392 4.79195 78.6477 9.35869 91.1594 13.9062C94.7333 15.2045 98.3104 16.4997 101.878 17.8173C103.463 18.4054 103.935 19.061 103.935 20.6936C103.932 35.2873 104.127 49.8841 103.847 64.4714C103.544 80.3537 96.9954 93.6169 85.3267 104.434C76.2163 112.88 65.55 118.748 53.7088 122.586C53.367 122.695 53.0448 122.856 52.7128 122.994H51.2513L51.2546 123ZM5.20776 44.3372H5.21753C5.21753 50.7904 5.11662 57.2468 5.24031 63.6968C5.45513 75.1442 8.97692 85.5182 16.2125 94.5232C25.3067 105.845 37.3172 112.938 51.0332 117.44C51.694 117.656 52.563 117.588 53.2433 117.37C61.0453 114.86 68.333 111.302 74.9762 106.533C90.1016 95.6801 98.6489 81.3082 98.7498 62.5463C98.8214 49.4406 98.7563 36.3317 98.7856 23.226C98.7856 22.4033 98.5382 22.0402 97.7668 21.7606C82.7781 16.3325 67.8024 10.8724 52.8137 5.44755C52.3352 5.27401 51.6842 5.2708 51.209 5.44113C36.2203 10.8627 21.2446 16.3261 6.25583 21.7445C5.41607 22.0498 5.18498 22.4483 5.18823 23.2935C5.22078 30.3092 5.20776 37.3216 5.20776 44.3372Z" fill="white"/>
<path d="M51.9479 92.3601C38.8568 92.1833 28.197 81.3979 28.6234 68.559C28.7601 64.4743 30.2769 60.7399 32.0671 57.1309C36.1227 48.9455 41.5323 41.647 47.3553 34.6282C48.2048 33.6062 49.0511 32.5778 49.9559 31.604C51.1114 30.3635 52.8398 30.2639 53.9204 31.5173C61.6052 40.4065 68.7334 49.6589 73.4301 60.5246C79.494 74.5526 70.159 88.7285 57.3478 91.5695C55.5771 91.9615 53.7479 92.103 51.9479 92.3601ZM52.0976 37.257C51.8275 37.4274 51.7429 37.4563 51.694 37.5141C45.8971 44.4494 40.5135 51.6611 36.523 59.7919C35.0323 62.8321 33.7466 65.9655 33.7954 69.4203C33.9094 77.5479 39.5761 84.5313 47.6157 86.5464C55.4599 88.5132 63.7794 84.9877 67.7992 77.9624C70.9467 72.4637 70.7416 66.9168 68.1442 61.2638C64.8307 54.0585 60.2999 47.6342 55.4534 41.3963C54.3761 40.008 53.2369 38.6614 52.0976 37.257Z" fill="white"/>
</g>
<defs>
<clipPath id="clip0_24_300">
<rect width="104" height="123" fill="white"/>
</clipPath>
</defs>
</svg>
