<svg width="121" height="125" viewBox="0 0 121 125" fill="none" xmlns="http://www.w3.org/2000/svg">
<g id="a" clip-path="url(#clip0_24_304)">
<path id="Vector" d="M60.9812 0C62.6359 0.557759 63.1632 1.78092 63.1567 3.41179C63.1303 9.14921 63.1468 14.8866 63.1468 20.624V22.2712C63.6445 21.8113 63.9576 21.5373 64.2543 21.2438C69.2281 16.3251 74.1788 11.3835 79.1988 6.51045C79.8218 5.90377 80.7776 5.35579 81.6181 5.29708C83.5299 5.16335 84.756 7.36829 83.8067 9.03178C83.5299 9.51778 83.1146 9.94181 82.7124 10.3397C76.4663 16.5338 70.2037 22.7083 63.9807 28.9187C63.5687 29.3296 63.1863 30.0048 63.1863 30.5593C63.1369 39.4313 63.1534 48.3 63.1534 57.1719C63.1534 57.3742 63.183 57.5731 63.2127 57.9482C63.6016 57.7786 63.9246 57.6677 64.2213 57.5046C71.9243 53.3166 79.6339 49.1415 87.3039 44.8947C87.8807 44.5751 88.362 43.7922 88.5597 43.1301C91.0747 34.6757 93.527 26.2016 96.0023 17.7341C96.5198 15.9695 97.4559 15.1932 98.893 15.3009C100.271 15.4052 101.296 16.4294 101.25 17.7831C101.227 18.4615 101.055 19.1497 100.864 19.8086C98.9095 26.5637 96.9351 33.3155 94.9674 40.0673C94.9113 40.2532 94.8652 40.4424 94.763 40.8241C95.3036 40.5599 95.6892 40.3837 96.0584 40.1847C101.134 37.4253 106.207 34.6626 111.28 31.8966C112.249 31.3682 113.221 31.0192 114.312 31.5835C115.908 32.4055 116.24 34.4767 114.922 35.6868C114.507 36.0684 113.996 36.3555 113.495 36.6294C108.57 39.3237 103.636 42.0015 98.7084 44.6892C98.3195 44.9012 97.9404 45.1296 97.3669 45.459C97.8877 45.6547 98.2338 45.8047 98.5931 45.9124C105.179 47.9347 111.768 49.9537 118.353 51.9727C118.706 52.0803 119.065 52.1782 119.398 52.3348C120.713 52.9545 121.31 54.2951 120.862 55.5737C120.436 56.7871 119.157 57.5405 117.786 57.1654C115.136 56.4478 112.516 55.6128 109.889 54.8137C103.847 52.9741 97.8119 51.1149 91.7603 49.3079C91.2691 49.1611 90.5802 49.148 90.1485 49.3764C82.2477 53.6329 74.3766 57.9352 66.4956 62.2309C66.3967 62.2864 66.3143 62.3744 66.1297 62.5245C66.5055 62.7626 66.8252 62.9876 67.1647 63.1703C74.6864 67.2671 82.2147 71.3442 89.72 75.4671C90.5176 75.9042 91.1966 75.9433 92.0404 75.6824C100.149 73.1708 108.267 70.6919 116.385 68.2097C116.972 68.0303 117.575 67.8705 118.179 67.8052C119.441 67.6715 120.585 68.4576 120.908 69.609C121.237 70.7897 120.707 71.9966 119.566 72.587C119.207 72.7729 118.811 72.9066 118.422 73.0273C111.837 75.0528 105.251 77.0686 98.6623 79.0909C98.2898 79.2051 97.9174 79.3323 97.334 79.5247C97.891 79.8607 98.2569 80.0955 98.6359 80.3043C103.6 83.0083 108.57 85.7057 113.534 88.4162C113.999 88.6707 114.467 88.9446 114.863 89.2904C115.828 90.1254 116.006 91.4105 115.364 92.4999C114.747 93.5404 113.435 94.0232 112.265 93.5796C111.656 93.348 111.082 93.0186 110.505 92.7087C105.324 89.8938 100.146 87.0691 94.7828 84.1499C94.9113 84.7044 94.9805 85.0827 95.086 85.448C97.0109 92.0433 98.9458 98.6353 100.867 105.231C101.035 105.811 101.19 106.415 101.237 107.015C101.339 108.368 100.544 109.399 99.2457 109.702C98.0459 109.983 96.8264 109.422 96.3287 108.218C95.91 107.207 95.6365 106.137 95.3299 105.084C93.0688 97.3176 90.8077 89.5481 88.5729 81.7753C88.3323 80.9436 87.9335 80.3923 87.1292 79.9618C79.5548 75.8813 72.0034 71.752 64.4454 67.6422C64.0927 67.4497 63.7269 67.2768 63.2193 67.0224C63.1896 67.5247 63.1468 67.9064 63.1468 68.2847C63.1435 76.912 63.1567 85.5394 63.127 94.1667C63.127 95.0148 63.3973 95.5953 63.9939 96.1825C70.2367 102.321 76.4531 108.483 82.6762 114.641C84.3935 116.34 84.6209 117.873 83.3387 119.077C82.106 120.231 80.6161 119.98 78.9483 118.33C74.0931 113.525 69.2347 108.721 64.3861 103.906C64.0697 103.59 63.8192 103.212 63.5357 102.859L63.2028 102.986C63.183 103.397 63.1468 103.808 63.1468 104.219C63.1435 109.918 63.1468 115.613 63.1468 121.311C63.1468 123.731 62.2535 124.98 60.5198 125.007C58.7893 125.033 57.84 123.751 57.84 121.363C57.84 115.707 57.84 110.051 57.84 104.396C57.84 103.952 57.84 103.508 57.84 102.748C57.3357 103.215 57.0226 103.489 56.726 103.779C51.7521 108.698 46.7981 113.636 41.7847 118.516C41.1815 119.103 40.2949 119.641 39.484 119.732C37.536 119.948 36.2044 117.707 37.1801 115.994C37.4569 115.508 37.8689 115.084 38.2744 114.686C44.5205 108.492 50.7798 102.315 57.0061 96.1042C57.4214 95.6899 57.8005 95.018 57.8038 94.4635C57.8532 85.5916 57.8367 76.7229 57.8367 67.8509C57.8367 67.6487 57.8038 67.4497 57.7741 67.0779C57.3852 67.2475 57.0622 67.3616 56.7655 67.5215C49.0625 71.7096 41.3529 75.8846 33.6829 80.1314C33.1028 80.451 32.6215 81.2306 32.4238 81.8927C29.9187 90.3081 27.4763 98.7429 25.0108 107.171C24.8757 107.638 24.7274 108.114 24.4901 108.531C23.9231 109.533 22.7299 109.986 21.6323 109.683C20.4952 109.37 19.6876 108.424 19.7371 107.276C19.77 106.558 19.9546 105.831 20.1557 105.136C22.1103 98.3809 24.0813 91.6291 26.0491 84.8772C26.092 84.7272 26.1249 84.5739 26.2073 84.2281C25.6997 84.4728 25.3174 84.6359 24.9515 84.8316C19.803 87.6301 14.6644 90.445 9.51255 93.2338C7.59092 94.2743 5.79454 93.5992 5.3232 91.7139C5.02655 90.5266 5.60337 89.4372 7.0141 88.6576C10.2805 86.8604 13.5602 85.086 16.8332 83.3018C18.7054 82.2841 20.5776 81.2697 22.4498 80.2488C22.7959 80.0596 23.1222 79.8378 23.6594 79.5084C20.1623 78.4353 16.8892 77.4339 13.6162 76.4293C9.8916 75.2877 6.167 74.1461 2.43911 73.0143C1.18329 72.6326 0.158205 72.0292 0.0131767 70.5908C-0.151629 68.9501 1.15033 67.5998 2.80498 67.8313C3.9718 67.9944 5.11555 68.3793 6.24941 68.7251C13.8997 71.0539 21.54 73.4089 29.2002 75.7117C29.7243 75.8683 30.456 75.8552 30.9207 75.6073C38.7523 71.3932 46.5542 67.1301 54.3626 62.8767C54.5044 62.8017 54.6296 62.7006 54.8933 62.5245C54.4978 62.2733 54.188 62.0483 53.8517 61.8656C46.33 57.7688 38.8017 53.6884 31.2965 49.5688C30.5087 49.135 29.833 49.0665 28.9793 49.3307C20.6336 51.914 12.2813 54.4647 3.92565 57.0121C1.61838 57.7134 -0.148332 56.562 0.0197689 54.4875C0.138429 53.0458 1.14044 52.4098 2.39956 52.0282C6.95148 50.6419 11.5001 49.2491 16.0487 47.8596C18.5076 47.1062 20.9665 46.3495 23.6957 45.5112C23.1255 45.1752 22.7629 44.9469 22.3904 44.7447C17.3177 41.9787 12.2417 39.2225 7.16902 36.4533C5.48141 35.5302 4.92767 34.4082 5.42868 33.0219C5.9132 31.6846 7.20857 31.016 8.57646 31.44C9.08076 31.5966 9.56529 31.8314 10.03 32.0826C15.3565 34.9725 20.6798 37.8754 26.1908 40.8762C26.0656 40.3315 25.9997 39.9564 25.8942 39.5944C23.9693 32.9991 22.0377 26.4071 20.1227 19.8086C19.9315 19.1497 19.7667 18.4648 19.7404 17.7831C19.6909 16.6219 20.5084 15.6368 21.6093 15.3661C22.7563 15.0823 23.9033 15.5161 24.4769 16.511C24.7175 16.9285 24.879 17.3982 25.0141 17.8646C27.4796 26.293 29.9451 34.7181 32.3743 43.1595C32.6413 44.0891 33.1028 44.6794 33.9696 45.1459C41.4353 49.1709 48.8779 53.2383 56.3304 57.2894C56.749 57.5177 57.1841 57.7232 57.7708 58.02C57.7972 57.4296 57.8334 57.0056 57.8334 56.5816C57.8334 48.0358 57.8236 39.49 57.8565 30.9442C57.8598 30.0505 57.5763 29.4373 56.9468 28.8208C50.7897 22.7703 44.6622 16.6936 38.5249 10.6235C38.3502 10.4506 38.1755 10.281 38.0008 10.1049C36.5835 8.66321 36.4318 7.16932 37.5855 6.01793C38.716 4.88936 40.3015 5.02636 41.7089 6.41586C46.6893 11.3281 51.6565 16.2533 56.6304 21.172C56.9435 21.4819 57.2698 21.7754 57.7675 22.2451C57.7972 21.6221 57.8334 21.2014 57.8334 20.7806C57.8367 15.0008 57.8499 9.22423 57.8269 3.44441C57.8203 1.81353 58.3344 0.580591 59.9924 0.0163087H60.9779L60.9812 0Z" fill="white"/>
</g>
<defs>
<clipPath id="clip0_24_304">
<rect width="121" height="125" fill="white"/>
</clipPath>
</defs>
</svg>
