<svg width="133" height="133" viewBox="0 0 133 133" fill="none" xmlns="http://www.w3.org/2000/svg">
<g id="a" clip-path="url(#clip0_7_138)">
<path id="Vector" d="M133 67.2738C132.243 68.8074 130.987 69.3382 129.315 69.307C126.077 69.2411 122.839 69.2862 119.601 69.2862C118.408 69.2862 117.38 68.9531 116.752 67.8498C115.694 65.9969 116.947 63.8457 119.216 63.7243C120.767 63.641 122.322 63.7035 123.877 63.7C125.688 63.7 127.507 63.7555 129.315 63.6827C130.991 63.6167 132.243 64.1754 133 65.7124V67.2703V67.2738Z" fill="white"/>
<path id="Vector_2" d="M65.7157 133C64.1749 132.247 63.6509 130.988 63.6856 129.315C63.7481 126.036 63.6717 122.754 63.7169 119.472C63.7516 117.088 65.8788 115.589 67.7076 116.741C68.4329 117.199 69.1651 118.268 69.1998 119.087C69.3594 122.792 69.2831 126.508 69.2692 130.221C69.2623 131.595 68.3774 132.386 67.2773 133H65.7192H65.7157Z" fill="white"/>
<path id="Vector_3" d="M60.4792 72.0168C59.8649 72.0168 59.393 72.0168 58.9245 72.0168C53.2541 72.0168 47.5838 72.0064 41.9134 72.0237C40.685 72.0272 39.696 71.649 39.113 70.5248C38.53 69.4007 38.7729 68.3597 39.512 67.3778C50.471 52.7739 61.4231 38.1631 72.3855 23.5626C73.3849 22.2303 74.6134 21.8486 75.8835 22.3829C77.1432 22.9138 77.7366 24.1108 77.4729 25.7104C75.9321 35.0091 74.3809 44.3044 72.8332 53.6032C72.7429 54.1479 72.6805 54.6927 72.5833 55.3935H74.0998C79.5966 55.3935 85.0935 55.4039 90.5903 55.3866C91.909 55.3831 93.1132 55.5601 93.8281 56.8369C94.5776 58.1727 94.0363 59.2969 93.2798 60.4419C82.6088 76.6176 71.9517 92.8002 61.3085 108.993C60.5729 110.114 59.7226 110.961 58.2756 110.797C56.6584 110.614 55.659 109.323 55.8707 107.543C56.2941 103.98 56.8007 100.423 57.2727 96.8667C58.3415 88.8517 59.4103 80.8333 60.4757 72.8183C60.5034 72.6101 60.4792 72.395 60.4792 72.0168ZM47.1014 66.4965H48.6734C53.4762 66.4965 58.279 66.4931 63.0818 66.4965C65.6671 66.5 66.736 67.8115 66.3855 70.386C65.2854 78.4843 64.2166 86.586 63.1478 94.6843C63.1026 95.0312 63.1408 95.3886 63.1408 96.1103C70.9454 84.2578 78.5348 72.7281 86.2768 60.9728C85.5273 60.9728 85.0623 60.9728 84.6007 60.9728C79.666 60.9728 74.7349 60.9867 69.8002 60.9659C67.4613 60.9554 66.2189 59.6023 66.5659 57.4719C67.1802 53.7177 67.8256 49.9704 68.4537 46.2197C69.0124 42.8714 69.5642 39.5232 70.1195 36.1749L69.9147 36.0813C62.3739 46.1364 54.8331 56.1881 47.1014 66.4965Z" fill="white"/>
<path id="Vector_4" d="M63.703 8.24051C63.703 6.59935 63.6891 4.95819 63.703 3.31703C63.7273 1.25603 64.8204 -0.0208115 66.5243 6.61032e-06C68.19 0.0208247 69.2658 1.25603 69.2797 3.24763C69.3039 6.6167 69.3005 9.98229 69.2797 13.3514C69.2658 15.343 68.19 16.5851 66.5278 16.6059C64.8274 16.6302 63.7273 15.3499 63.703 13.2924C63.6857 11.6096 63.6995 9.92331 63.6995 8.24051H63.703Z" fill="white"/>
<path id="Vector_5" d="M8.3494 69.2861C6.62122 69.2861 4.89652 69.3104 3.16835 69.2792C1.21114 69.2479 -0.0312059 68.1133 2.61494e-05 66.4444C0.027788 64.8276 1.24237 63.7277 3.13711 63.7138C6.58999 63.686 10.0463 63.6826 13.4992 63.7138C15.3801 63.7311 16.5947 64.8588 16.6051 66.4791C16.612 68.1029 15.4044 69.2341 13.5304 69.2757C11.8057 69.3139 10.0776 69.2826 8.3494 69.2861Z" fill="white"/>
<path id="Vector_6" d="M32.0059 28.8297C31.9886 30.3806 31.5028 31.2515 30.4547 31.7303C29.2645 32.2716 28.1609 32.0565 27.2344 31.1439C25.3847 29.3224 23.5559 27.48 21.7202 25.641C20.9567 24.8742 20.162 24.1352 19.4472 23.3267C18.3749 22.1158 18.4269 20.5406 19.5062 19.4789C20.5924 18.4102 22.1921 18.3373 23.3581 19.4684C26.0267 22.0603 28.6502 24.7007 31.239 27.3759C31.6867 27.8373 31.8671 28.5521 32.0094 28.8331L32.0059 28.8297Z" fill="white"/>
<path id="Vector_7" d="M104.079 32.0148C102.511 31.9593 101.66 31.425 101.216 30.3737C100.755 29.2877 100.9 28.226 101.733 27.3655C103.298 25.7486 104.902 24.1699 106.491 22.5738C107.501 21.5642 108.486 20.5302 109.531 19.5552C110.777 18.3929 112.387 18.3825 113.483 19.465C114.587 20.5545 114.639 22.1991 113.456 23.4135C110.891 26.0505 108.285 28.6493 105.641 31.2029C105.151 31.6748 104.388 31.8552 104.079 32.0114V32.0148Z" fill="white"/>
<path id="Vector_8" d="M31.9955 104.222C31.7873 104.576 31.4958 105.367 30.9579 105.923C28.5531 108.414 26.0927 110.85 23.6253 113.278C22.2858 114.597 20.6305 114.656 19.4819 113.507C18.3298 112.355 18.3957 110.704 19.7144 109.368C22.206 106.842 24.7219 104.34 27.2448 101.842C28.1713 100.926 29.2783 100.722 30.4652 101.273C31.5062 101.759 31.9955 102.63 31.9955 104.226V104.222Z" fill="white"/>
<path id="Vector_9" d="M104.162 100.982C104.509 101.179 105.311 101.454 105.863 101.988C108.386 104.42 110.856 106.908 113.313 109.41C114.618 110.738 114.646 112.414 113.463 113.549C112.321 114.645 110.7 114.59 109.413 113.323C106.883 110.836 104.388 108.313 101.882 105.798C100.963 104.875 100.716 103.782 101.237 102.588C101.695 101.54 102.549 101.02 104.162 100.985V100.982Z" fill="white"/>
</g>
<defs>
<clipPath id="clip0_7_138">
<rect width="133" height="133" fill="white"/>
</clipPath>
</defs>
</svg>
