<svg width="77" height="133" viewBox="0 0 77 133" fill="none" xmlns="http://www.w3.org/2000/svg">
<g id="a" clip-path="url(#clip0_7_158)">
<path id="Vector" d="M27.442 133C25.568 132.584 23.6457 132.313 21.8234 131.73C10.5758 128.142 3.30024 120.557 0.785475 108.978C-1.6845 97.6065 1.72248 87.79 10.1693 79.8195C10.8549 79.1741 11.0168 78.5356 11.0133 77.675C10.9961 58.4133 10.9892 39.1516 11.0064 19.8933C11.0133 10.8055 16.5493 3.22017 24.8755 0.794671C37.3632 -2.84531 49.5064 6.4507 49.5409 19.758C49.5891 38.8462 49.5684 57.9345 49.5202 77.0227C49.5168 78.4419 49.9508 79.3441 50.9498 80.3469C59.7825 89.23 62.8416 99.8758 58.9764 111.84C55.0699 123.937 46.375 130.863 33.8288 132.771C33.5842 132.809 33.3499 132.92 33.1122 133H27.4385H27.442ZM16.5458 49.1173C16.5458 59.1177 16.5217 69.1147 16.5699 79.1151C16.5768 80.8605 16.0566 82.1027 14.6649 83.2305C6.0217 90.2294 3.14866 102.353 7.61668 112.562C12.0778 122.753 22.9051 128.968 33.7185 127.188C44.1324 125.477 51.2117 119.412 54.0433 109.165C56.8819 98.8973 53.785 90.1322 45.817 83.1749C44.5114 82.0333 43.9808 80.8501 43.9843 79.1602C44.0222 64.6176 44.0084 50.0715 44.005 35.5289C44.005 29.9007 44.1014 24.2724 43.943 18.6476C43.7018 10.2087 35.4617 3.97662 27.2973 5.90592C20.783 7.44658 16.5803 12.8215 16.5561 19.7684C16.5217 29.5502 16.5458 39.332 16.5458 49.1173Z" fill="white"/>
<path id="Vector_2" d="M68.7392 38.7802C70.4582 38.7802 72.1772 38.7559 73.8962 38.7872C75.8012 38.8219 76.9759 39.8802 76.9965 41.525C77.0207 43.2322 75.8287 44.3391 73.8583 44.3565C70.465 44.3842 67.0684 44.3842 63.6752 44.3565C61.8012 44.3391 60.5714 43.2253 60.5403 41.6187C60.5093 39.9739 61.7805 38.8184 63.7131 38.7872C65.3873 38.7594 67.065 38.7802 68.7392 38.7802Z" fill="white"/>
<path id="Vector_3" d="M68.8288 22.1522C67.0237 22.1522 65.2186 22.18 63.4134 22.1418C61.7323 22.1071 60.5645 20.9759 60.537 19.4491C60.5094 17.8703 61.7186 16.6627 63.4513 16.6488C67.0168 16.6211 70.5857 16.6176 74.1511 16.6488C75.8495 16.6627 76.9759 17.787 76.9966 19.3589C77.0207 21.0036 75.9115 22.1071 74.1132 22.1453C72.3529 22.18 70.5891 22.1522 68.8288 22.1522Z" fill="white"/>
<path id="Vector_4" d="M68.7185 66.5052C66.9995 66.5052 65.2805 66.5225 63.5615 66.5017C61.7357 66.4774 60.4956 65.2976 60.5369 63.6737C60.5748 62.1053 61.7736 61.0088 63.5615 60.9949C67.0408 60.9706 70.5236 60.9706 74.0029 60.9949C75.8976 61.0088 77.031 62.1053 76.9965 63.7986C76.9655 65.4052 75.7977 66.474 74.0029 66.4983C72.2426 66.5225 70.4788 66.5017 68.7185 66.5017V66.5052Z" fill="white"/>
<path id="Vector_5" d="M33.0502 59.4855C33.0502 68.8787 33.0605 78.2718 33.033 87.665C33.033 88.5533 33.1983 88.9975 34.1698 89.2855C40.8391 91.2529 45.0349 98.0194 43.843 104.744C42.5753 111.903 36.4193 116.813 29.2987 116.344C22.8912 115.921 17.4414 110.751 16.6422 104.335C15.812 97.6828 19.6703 91.4473 26.0467 89.4104C27.3248 89.0009 27.5315 88.4353 27.528 87.2486C27.4936 68.7225 27.5039 50.1964 27.5108 31.6668C27.5108 31.0214 27.5246 30.3587 27.6762 29.7375C27.9828 28.4745 29.0541 27.725 30.3528 27.7562C31.5861 27.7839 32.5886 28.5369 32.8814 29.7618C33.0192 30.3413 33.0398 30.959 33.0398 31.5627C33.0502 40.8692 33.0467 50.1756 33.0467 59.482L33.0502 59.4855ZM30.2839 94.2822C25.7091 94.2822 22.0576 97.8944 22.03 102.454C22.0024 107.045 25.7332 110.844 30.2736 110.848C34.814 110.848 38.5551 107.052 38.5275 102.464C38.5034 97.8979 34.8587 94.2822 30.2839 94.2822Z" fill="white"/>
</g>
<defs>
<clipPath id="clip0_7_158">
<rect width="77" height="133" fill="white"/>
</clipPath>
</defs>
</svg>
